<?xml version="1.0" encoding="UTF-8" standalone="no"?>
<svg
   viewBox="0 0 24 24"
   version="1.1"
   id="svg1"
   sodipodi:docname="max.svg"
   inkscape:version="1.3 (0e150ed6c4, 2023-07-21)"
   xmlns:inkscape="http://www.inkscape.org/namespaces/inkscape"
   xmlns:sodipodi="http://sodipodi.sourceforge.net/DTD/sodipodi-0.dtd"
   xmlns="http://www.w3.org/2000/svg"
   xmlns:svg="http://www.w3.org/2000/svg">
  <defs
     id="defs1" />
  <sodipodi:namedview
     id="namedview1"
     pagecolor="#ffffff"
     bordercolor="#000000"
     borderopacity="0.25"
     inkscape:showpageshadow="2"
     inkscape:pageopacity="0.0"
     inkscape:pagecheckerboard="0"
     inkscape:deskcolor="#d1d1d1"
     inkscape:zoom="36.625"
     inkscape:cx="11.945392"
     inkscape:cy="11.931741"
     inkscape:window-width="1908"
     inkscape:window-height="1016"
     inkscape:window-x="6"
     inkscape:window-y="6"
     inkscape:window-maximized="0"
     inkscape:current-layer="svg1" />
  <path
     id="path1"
     d="m 12,8 c -2.2099934,0 -4,1.7900066 -4,4 0,2.209994 1.7900066,4 4,4 2.209994,0 4,-1.790006 4,-4 0,-2.2099934 -1.790006,-4 -4,-4 z" />
  <path
     style="fill:#e67e80;stroke-width:0.0273038;fill-opacity:1"
     d="M 11.713311,15.969403 C 10.768865,15.910788 9.889848,15.504177 9.1860096,14.800339 8.5972342,14.211563 8.2457202,13.548143 8.0778629,12.708907 8.0036671,12.337951 8.0108495,11.603455 8.0924045,11.221843 8.3267909,10.125101 8.973118,9.1961541 9.9114543,8.6073751 10.42315,8.2863011 11.104799,8.0689282 11.720137,8.0305995 c 1.221985,-0.076116 2.323178,0.3528824 3.163733,1.2325147 0.532928,0.557704 0.880409,1.2365438 1.038071,2.0279788 0.06766,0.339646 0.06766,1.078168 0,1.417814 -0.156025,0.783218 -0.503426,1.466528 -1.023382,2.012914 -0.488092,0.512901 -1.001911,0.839656 -1.666824,1.059989 -0.495889,0.164324 -0.963169,0.222053 -1.518424,0.187593 z"
     id="path3" />
  <path
     style="fill:#8ba678;fill-opacity:1;stroke-width:0.0345157"
     d="M 11.627274,17.14006 C 10.457419,17.021988 9.4531908,16.563318 8.607387,15.76076 7.6742286,14.875315 7.1303385,13.76437 7.0518944,12.583526 6.9715235,11.37368 7.2156956,10.392968 7.8352403,9.4372309 8.5902782,8.2724759 9.7048248,7.518731 11.105408,7.2256836 c 0.451362,-0.094439 1.302387,-0.104076 1.765715,-0.019994 0.768055,0.1393816 1.556347,0.4732456 2.125574,0.90024 0.395449,0.2966393 0.977106,0.9040576 1.224051,1.2782643 0.36246,0.549253 0.643381,1.2328611 0.761086,1.8520681 0.0626,0.329316 0.07556,1.416835 0.02034,1.706891 -0.15913,0.835848 -0.483701,1.584208 -0.956489,2.205365 -0.265663,0.349032 -0.880029,0.929644 -1.228592,1.16109 -0.529666,0.351699 -1.244675,0.640044 -1.889729,0.76208 -0.290362,0.05493 -1.04173,0.09445 -1.300085,0.06837 z"
     id="path7" />
  <path
     style="fill:#00ff9a;stroke-width:0.0273038;fill-opacity:1"
     d="M 11.522184,17.114937 C 10.972309,17.052811 10.408521,16.885219 9.883959,16.627958 9.3232013,16.352945 8.8955013,16.036199 8.4297832,15.551024 7.6559413,14.744854 7.1978886,13.793073 7.0842958,12.755256 7.0330768,12.287305 7.0637476,11.540778 7.1513479,11.12321 7.4132544,9.8747667 8.1925529,8.7230023 9.2559727,8.0126787 9.7713993,7.6683934 10.420595,7.3915337 11.018416,7.2610575 c 0.5587,-0.121938 1.361774,-0.1307827 1.935721,-0.021319 0.592927,0.1130832 1.36217,0.4259925 1.85815,0.7558493 0.434645,0.2890662 1.054354,0.9109609 1.387272,1.3921669 0.30706,0.443831 0.625717,1.1949823 0.747397,1.7617943 0.05245,0.244322 0.05969,0.36421 0.06125,1.014274 0.0016,0.679347 -0.0031,0.756486 -0.06018,0.982935 -0.257869,1.022843 -0.626135,1.715325 -1.26032,2.369885 -0.366299,0.378068 -0.674527,0.644685 -0.952265,0.82371 -0.44393,0.286148 -1.195367,0.589824 -1.722136,0.69596 -0.214877,0.04329 -1.105832,0.120239 -1.237511,0.106873 -0.01935,-0.002 -0.133478,-0.01468 -0.253615,-0.02825 z"
     id="path2" />
  <path
     style="fill:#39e9a8;stroke-width:0.0273038;fill-opacity:1"
     d="M 11.494881,17.100655 C 10.601363,16.984842 9.6391179,16.576226 8.9692833,16.028163 7.9296793,15.177553 7.2602744,14.030519 7.1109017,12.843803 7.0616227,12.452297 7.0922665,11.472928 7.1642025,11.140322 7.2997464,10.513618 7.6156847,9.7941366 7.9793836,9.2839226 8.2187548,8.9481216 8.7263312,8.4246882 9.0375427,8.192706 9.7705201,7.6463325 10.625287,7.3014989 11.480838,7.2070215 c 0.417117,-0.046062 1.15453,-0.019264 1.505467,0.054709 0.459701,0.096899 1.078336,0.3321426 1.56739,0.5960192 0.435632,0.2350518 1.122222,0.8626288 1.516528,1.3861814 0.336209,0.446413 0.650062,1.1150579 0.824049,1.7555899 l 0.08635,0.317885 0.0012,0.832765 c 0.0011,0.77839 -0.0028,0.847132 -0.05953,1.052822 -0.236354,0.857038 -0.545387,1.481796 -1.005364,2.032502 -0.210621,0.252165 -0.643053,0.67478 -0.903115,0.882613 -0.432681,0.345785 -1.174879,0.695107 -1.834792,0.86356 -0.381537,0.09739 -1.332384,0.164574 -1.684096,0.118987 z"
     id="path4" />
  <path
     style="fill:#afba67;stroke-width:0.0273038;fill-opacity:1"
     d="M 11.235495,17.048805 C 10.42531,16.884007 9.598678,16.508678 9.0020202,16.034703 8.7190161,15.80989 8.2607565,15.335405 8.0364673,15.034963 7.6594616,14.529953 7.3807942,13.952309 7.2131958,13.328419 l -0.085474,-0.31818 -7.21e-4,-0.819113 C 7.1261877,11.267338 7.139175,11.167318 7.3328833,10.605543 7.624498,9.7598282 8.0101146,9.1659087 8.6875288,8.5191427 9.3049889,7.9296183 10.151235,7.4892737 11.063108,7.2830096 c 0.239315,-0.054133 0.343814,-0.06064 0.977848,-0.060888 0.576426,-2.26e-4 0.751816,0.00877 0.932853,0.047868 0.584024,0.1261182 1.529175,0.5301294 1.898919,0.8117061 0.479167,0.3649072 0.960595,0.8517095 1.255823,1.2698402 0.293291,0.415388 0.571603,1.0224211 0.746571,1.6283601 l 0.09746,0.33751 -0.01011,0.887372 -0.01011,0.887372 -0.08865,0.281027 c -0.204908,0.649592 -0.481614,1.222583 -0.800663,1.657978 -0.234413,0.319896 -0.952442,1.012969 -1.264736,1.220779 -0.538679,0.358452 -1.344808,0.682084 -1.924589,0.772654 -0.413555,0.0646 -1.37016,0.07874 -1.638225,0.02422 z"
     id="path5" />
</svg>
