<?xml version="1.0" encoding="UTF-8" standalone="no"?>
<svg
   viewBox="0 0 24 24"
   version="1.1"
   id="svg1"
   sodipodi:docname="close_temp.svg"
   inkscape:version="1.3 (0e150ed6c4, 2023-07-21)"
   xmlns:inkscape="http://www.inkscape.org/namespaces/inkscape"
   xmlns:sodipodi="http://sodipodi.sourceforge.net/DTD/sodipodi-0.dtd"
   xmlns="http://www.w3.org/2000/svg"
   xmlns:svg="http://www.w3.org/2000/svg">
  <defs
     id="defs1" />
  <sodipodi:namedview
     id="namedview1"
     pagecolor="#ffffff"
     bordercolor="#000000"
     borderopacity="0.25"
     inkscape:showpageshadow="2"
     inkscape:pageopacity="0.0"
     inkscape:pagecheckerboard="0"
     inkscape:deskcolor="#d1d1d1"
     inkscape:zoom="36.625"
     inkscape:cx="11.931741"
     inkscape:cy="11.986348"
     inkscape:window-width="1908"
     inkscape:window-height="1020"
     inkscape:window-x="6"
     inkscape:window-y="30"
     inkscape:window-maximized="0"
     inkscape:current-layer="svg1" />
  <path
     id="path1"
     d="m 12,8 c -2.2099824,0 -4,1.7900176 -4,4 0,2.209984 1.7900176,4 4,4 2.209984,0 4,-1.790016 4,-4 C 16,9.7900176 14.209984,8 12,8 Z M 5.6289062,20.498047 c 6.253e-4,0.0066 0.00119,0.01284 0.00195,0.01953 0.00377,0.01326 0.00523,0.02886 0.011719,0.04102 0.0033,0.0062 -2.962e-4,-0.01469 -0.00195,-0.02148 -0.00319,-0.01304 -0.00803,-0.02616 -0.011719,-0.03906 z" />
  <path
     id="path2"
     style="fill:#ff0000;stroke-width:0.0273038"
     d="m 5.6289062,20.498047 c 6.253e-4,0.0066 0.00119,0.01284 0.00195,0.01953 0.00377,0.01326 0.00523,0.02886 0.011719,0.04102 0.0033,0.0062 -2.962e-4,-0.01469 -0.00195,-0.02148 -0.00319,-0.01304 -0.00803,-0.02616 -0.011719,-0.03906 z" />
  <path
     style="fill:#e67e80;fill-opacity:1;stroke-width:0.0343375"
     d="M 11.726475,17.451013 C 10.53793,17.377348 9.4317256,16.866338 8.5459755,15.981786 7.8050273,15.241838 7.3626623,14.408082 7.1514212,13.353367 c -0.093372,-0.466201 -0.084333,-1.389282 0.0183,-1.868875 0.294965,-1.378337 1.1083395,-2.5457962 2.2891944,-3.2857473 0.6439474,-0.4035115 1.5017734,-0.676696 2.2761494,-0.7248658 1.537815,-0.095659 2.923618,0.4434868 3.98142,1.5489694 0.670667,0.7008973 1.107956,1.5540337 1.306367,2.5486737 0.08515,0.426852 0.08515,1.354993 0,1.781845 -0.196351,0.984314 -0.63354,1.843067 -1.287882,2.529741 -0.614242,0.644591 -1.260861,1.055242 -2.097625,1.332147 -0.624055,0.206515 -1.212106,0.279066 -1.91087,0.235758 z"
     id="path3" />
  <path
     id="path4"
     style="fill:#e67e80;fill-opacity:1;stroke-width:0.0273038"
     d="m 5.6289062,20.498047 c 6.253e-4,0.0066 0.00119,0.01284 0.00195,0.01953 0.00377,0.01326 0.00523,0.02886 0.011719,0.04102 0.0033,0.0062 -2.962e-4,-0.01469 -0.00195,-0.02148 -0.00319,-0.01304 -0.00803,-0.02616 -0.011719,-0.03906 z" />
</svg>
