<?xml version="1.0" encoding="UTF-8" standalone="no"?>
<svg
   viewBox="0 0 24 24"
   version="1.1"
   id="svg1"
   sodipodi:docname="normal.svg"
   inkscape:version="1.3 (0e150ed6c4, 2023-07-21)"
   xmlns:inkscape="http://www.inkscape.org/namespaces/inkscape"
   xmlns:sodipodi="http://sodipodi.sourceforge.net/DTD/sodipodi-0.dtd"
   xmlns="http://www.w3.org/2000/svg"
   xmlns:svg="http://www.w3.org/2000/svg">
  <defs
     id="defs1" />
  <sodipodi:namedview
     id="namedview1"
     pagecolor="#ffffff"
     bordercolor="#000000"
     borderopacity="0.25"
     inkscape:showpageshadow="2"
     inkscape:pageopacity="0.0"
     inkscape:pagecheckerboard="0"
     inkscape:deskcolor="#d1d1d1"
     inkscape:zoom="36.625"
     inkscape:cx="11.931741"
     inkscape:cy="11.986348"
     inkscape:window-width="1916"
     inkscape:window-height="1028"
     inkscape:window-x="0"
     inkscape:window-y="24"
     inkscape:window-maximized="1"
     inkscape:current-layer="svg1" />
  <path
     id="path1"
     d="m 12,8 c -2.2099978,0 -4,1.7900022 -4,4 0,2.209998 1.7900022,4 4,4 2.209998,0 4,-1.790002 4,-4 0,-2.2099978 -1.790002,-4 -4,-4 z" />
  <path
     style="fill:#e67e80;stroke-width:0.0273038;fill-opacity:1"
     d="M 11.713311,15.969403 C 10.768865,15.910788 9.889848,15.504177 9.1860096,14.800339 8.5972342,14.211563 8.2457202,13.548143 8.0778629,12.708907 8.0036671,12.337951 8.0108495,11.603455 8.0924045,11.221843 8.3267909,10.125101 8.973118,9.1961541 9.9114543,8.6073751 10.42315,8.2863011 11.104799,8.0689282 11.720137,8.0305995 c 1.221985,-0.076116 2.323178,0.3528824 3.163733,1.2325147 0.532928,0.557704 0.880409,1.2365438 1.038071,2.0279788 0.06766,0.339646 0.06766,1.078168 0,1.417814 -0.156025,0.783218 -0.503426,1.466528 -1.023382,2.012914 -0.488092,0.512901 -1.001911,0.839656 -1.666824,1.059989 -0.495889,0.164324 -0.963169,0.222053 -1.518424,0.187593 z"
     id="path3" />
  <path
     style="fill:#abb2bf;fill-opacity:1;stroke-width:0.0345157"
     d="M 11.324979,16.863794 C 10.155124,16.745722 9.1508964,16.287052 8.3050926,15.484494 7.3719342,14.599049 6.8280441,13.488104 6.7496,12.30726 6.6692291,11.097414 6.9134012,10.116702 7.5329459,9.1609654 8.2879838,7.9962104 9.4025304,7.2424655 10.803113,6.9494181 c 0.451362,-0.094439 1.302387,-0.104076 1.765715,-0.019994 0.768055,0.1393816 1.556347,0.4732456 2.125574,0.90024 0.395449,0.2966393 0.977106,0.9040576 1.224051,1.2782643 0.36246,0.549253 0.643381,1.2328606 0.761086,1.8520676 0.0626,0.329316 0.07556,1.416835 0.02034,1.706891 -0.15913,0.835848 -0.483701,1.584208 -0.956489,2.205365 -0.265663,0.349032 -0.880029,0.929644 -1.228592,1.16109 -0.529666,0.351699 -1.244675,0.640044 -1.889729,0.76208 -0.290362,0.05493 -1.04173,0.09445 -1.300085,0.06837 z"
     id="path7" />
</svg>
