<?xml version="1.0" encoding="UTF-8" standalone="no"?>
<svg
   viewBox="0 0 24 24"
   version="1.1"
   id="svg1"
   sodipodi:docname="inactive.svg"
   inkscape:version="1.3 (0e150ed6c4, 2023-07-21)"
   xmlns:inkscape="http://www.inkscape.org/namespaces/inkscape"
   xmlns:sodipodi="http://sodipodi.sourceforge.net/DTD/sodipodi-0.dtd"
   xmlns="http://www.w3.org/2000/svg"
   xmlns:svg="http://www.w3.org/2000/svg">
  <defs
     id="defs1" />
  <sodipodi:namedview
     id="namedview1"
     pagecolor="#ffffff"
     bordercolor="#000000"
     borderopacity="0.25"
     inkscape:showpageshadow="2"
     inkscape:pageopacity="0.0"
     inkscape:pagecheckerboard="0"
     inkscape:deskcolor="#d1d1d1"
     inkscape:zoom="36.625"
     inkscape:cx="11.986348"
     inkscape:cy="11.986348"
     inkscape:window-width="1920"
     inkscape:window-height="1059"
     inkscape:window-x="0"
     inkscape:window-y="21"
     inkscape:window-maximized="1"
     inkscape:current-layer="svg1" />
  <path
     d="M19 5V19H5V5H19M19 3H5C3.9 3 3 3.9 3 5V19C3 20.11 3.9 21 5 21H19C20.11 21 21 20.11 21 19V5C21 3.9 20.11 3 19 3M12 8C9.79 8 8 9.79 8 12S9.79 16 12 16 16 14.21 16 12 14.21 8 12 8Z"
     id="path1" />
  <path
     style="fill:#ff0000;stroke-width:0.0273038"
     d="M 4.7235495,20.966552 C 4.2940814,20.905269 3.8741725,20.681158 3.5568988,20.343894 3.3335177,20.106438 3.1933437,19.865536 3.0946584,19.549488 L 3.0307167,19.34471 V 11.986348 4.6279863 L 3.1021795,4.418658 C 3.2179158,4.0796437 3.3558946,3.8603165 3.6165081,3.601096 3.8117672,3.4068806 3.897681,3.3440184 4.1107268,3.239482 4.6120826,2.9934786 3.7811604,3.0181953 11.849829,3.0092742 c 5.023683,-0.00555 7.221214,9.026e-4 7.380728,0.021687 0.474769,0.06186 0.878419,0.2699679 1.212544,0.6251453 0.223381,0.2374554 0.363555,0.4783583 0.462241,0.7944057 l 0.06394,0.2047782 V 12 19.34471 l -0.06394,0.204778 c -0.244359,0.782579 -0.853529,1.304427 -1.656195,1.418787 -0.238295,0.03395 -14.2872728,0.03228 -14.5255975,-0.0017 z M 19.017065,12 V 4.996587 H 12 4.9829352 V 12 19.003413 H 12 19.017065 Z"
     id="path2" />
  <path
     style="fill:#e67e80;stroke-width:0.0273038;fill-opacity:1"
     d="M 11.713311,15.969403 C 10.768865,15.910788 9.889848,15.504177 9.1860096,14.800339 8.5972342,14.211563 8.2457202,13.548143 8.0778629,12.708907 8.0036671,12.337951 8.0108495,11.603455 8.0924045,11.221843 8.3267909,10.125101 8.973118,9.1961541 9.9114543,8.6073751 10.42315,8.2863011 11.104799,8.0689282 11.720137,8.0305995 c 1.221985,-0.076116 2.323178,0.3528824 3.163733,1.2325147 0.532928,0.557704 0.880409,1.2365438 1.038071,2.0279788 0.06766,0.339646 0.06766,1.078168 0,1.417814 -0.156025,0.783218 -0.503426,1.466528 -1.023382,2.012914 -0.488092,0.512901 -1.001911,0.839656 -1.666824,1.059989 -0.495889,0.164324 -0.963169,0.222053 -1.518424,0.187593 z"
     id="path3" />
  <path
     style="fill:#e67e80;fill-opacity:1;stroke-width:0.0273038"
     d="M 4.668942,20.939988 C 3.9676185,20.820743 3.3597895,20.276173 3.1107486,19.543963 l -0.06638,-0.195166 V 11.980537 4.6122758 L 3.1385396,4.368436 C 3.2637987,4.044099 3.3911149,3.8507408 3.6418177,3.6040956 3.9245217,3.3259671 4.2813057,3.1279132 4.5875755,3.0790971 4.7599228,3.0516269 6.3262378,3.0443686 12.081911,3.0443686 h 7.276451 l 0.21843,0.074387 c 0.320164,0.1090324 0.544213,0.2514938 0.806235,0.512644 0.251436,0.2505989 0.384962,0.4681123 0.506224,0.8246381 l 0.06638,0.1951655 V 12 19.348797 l -0.06638,0.195166 c -0.233113,0.68538 -0.66704,1.121826 -1.339763,1.347541 l -0.191126,0.06413 -7.276451,0.0038 c -4.0020475,0.0021 -7.3378837,-0.0067 -7.412969,-0.01943 z M 19.017065,12 V 4.996587 H 12 4.9829352 V 12 19.003413 H 12 19.017065 Z"
     id="path4" />
  <path
     style="fill:#e67e80;fill-opacity:1;stroke-width:0.0273038"
     d="m 3.0305154,12 c 2e-7,-3.9945392 0.00316,-5.6246074 0.00703,-3.6223738 0.00386,2.0022338 0.00386,5.2704928 -4e-7,7.2627988 C 3.033677,17.63273 3.0305152,15.994539 3.0305154,12 Z"
     id="path5" />
  <path
     style="fill:#d3c6aa;stroke-width:0.0273038;fill-opacity:1"
     d="M 5.6791809,20.929167 4.5460751,20.914635 4.365336,20.844251 C 3.7786062,20.615767 3.333798,20.145965 3.1261394,19.535423 L 3.0580205,19.335145 V 11.972621 4.6100974 L 3.1288463,4.4347415 C 3.2752914,4.0721621 3.3949555,3.8817841 3.6177474,3.6569306 3.8478599,3.424689 4.1130195,3.2483464 4.3847706,3.146827 L 4.5460751,3.086568 7.6040956,3.068865 C 9.2860068,3.059125 12.611986,3.049633 14.99516,3.047765 l 4.333044,-0.0034 0.231175,0.083649 c 0.646193,0.2338203 1.095639,0.693316 1.318276,1.3477546 l 0.06433,0.1890826 V 12 19.335145 l -0.06638,0.195166 c -0.232125,0.682477 -0.651367,1.103409 -1.348216,1.353651 l -0.199579,0.07167 -6.257759,-0.006 c -3.441767,-0.0033 -6.7676559,-0.01251 -7.3908641,-0.0205 z M 19.030717,12 V 4.9829352 H 12 4.9692833 V 12 19.017065 H 12 19.030717 Z"
     id="path6" />
  <path
     style="fill:#d3c6aa;fill-opacity:1;stroke-width:0.0273038"
     d="M 11.522184,15.941835 C 11.127721,15.892408 10.605676,15.734091 10.25526,15.557625 9.4644829,15.159396 8.7324182,14.405027 8.3847368,13.63011 8.145977,13.09796 8.0480775,12.620829 8.0502646,12 c 0.00183,-0.520754 0.045055,-0.811278 0.1813404,-1.218956 0.4559306,-1.3638505 1.5497238,-2.3458305 2.966197,-2.6629775 0.377016,-0.084414 1.18845,-0.091715 1.553051,-0.013974 1.546528,0.3297514 2.696611,1.4269015 3.105003,2.9620935 0.0613,0.23044 0.07208,0.335626 0.08294,0.809145 0.0135,0.58921 -0.0076,0.796577 -0.12089,1.189515 -0.364541,1.264069 -1.328362,2.276875 -2.55949,2.689572 -0.42712,0.143178 -0.65389,0.180255 -1.162848,0.190125 -0.262798,0.0051 -0.520819,0.0039 -0.573379,-0.0027 z"
     id="path7" />
</svg>
