<?xml version="1.0" encoding="UTF-8" standalone="no"?>
<svg
   viewBox="0 0 24 24"
   version="1.1"
   id="svg1"
   sodipodi:docname="max_inactive.svg"
   inkscape:version="1.3 (0e150ed6c4, 2023-07-21)"
   xmlns:inkscape="http://www.inkscape.org/namespaces/inkscape"
   xmlns:sodipodi="http://sodipodi.sourceforge.net/DTD/sodipodi-0.dtd"
   xmlns="http://www.w3.org/2000/svg"
   xmlns:svg="http://www.w3.org/2000/svg">
  <defs
     id="defs1" />
  <sodipodi:namedview
     id="namedview1"
     pagecolor="#ffffff"
     bordercolor="#000000"
     borderopacity="0.25"
     inkscape:showpageshadow="2"
     inkscape:pageopacity="0.0"
     inkscape:pagecheckerboard="0"
     inkscape:deskcolor="#d1d1d1"
     inkscape:zoom="36.625"
     inkscape:cx="11.986348"
     inkscape:cy="12"
     inkscape:window-width="1916"
     inkscape:window-height="1024"
     inkscape:window-x="0"
     inkscape:window-y="26"
     inkscape:window-maximized="1"
     inkscape:current-layer="svg1" />
  <path
     d="M19 5V19H5V5H19M19 3H5C3.9 3 3 3.9 3 5V19C3 20.11 3.9 21 5 21H19C20.11 21 21 20.11 21 19V5C21 3.9 20.11 3 19 3M12 8C9.79 8 8 9.79 8 12S9.79 16 12 16 16 14.21 16 12 14.21 8 12 8Z"
     id="path1" />
  <path
     style="fill:#ff0000;stroke-width:0.0273038"
     d="M 4.7235495,20.966552 C 4.2940814,20.905269 3.8741725,20.681158 3.5568988,20.343894 3.3335177,20.106438 3.1933437,19.865536 3.0946584,19.549488 L 3.0307167,19.34471 V 11.986348 4.6279863 L 3.1021795,4.418658 C 3.2179158,4.0796437 3.3558946,3.8603165 3.6165081,3.601096 3.8117672,3.4068806 3.897681,3.3440184 4.1107268,3.239482 4.6120826,2.9934786 3.7811604,3.0181953 11.849829,3.0092742 c 5.023683,-0.00555 7.221214,9.026e-4 7.380728,0.021687 0.474769,0.06186 0.878419,0.2699679 1.212544,0.6251453 0.223381,0.2374554 0.363555,0.4783583 0.462241,0.7944057 l 0.06394,0.2047782 V 12 19.34471 l -0.06394,0.204778 c -0.244359,0.782579 -0.853529,1.304427 -1.656195,1.418787 -0.238295,0.03395 -14.2872728,0.03228 -14.5255975,-0.0017 z M 19.017065,12 V 4.996587 H 12 4.9829352 V 12 19.003413 H 12 19.017065 Z"
     id="path2" />
  <path
     style="fill:#e67e80;stroke-width:0.0273038;fill-opacity:1"
     d="M 11.713311,15.969403 C 10.768865,15.910788 9.889848,15.504177 9.1860096,14.800339 8.5972342,14.211563 8.2457202,13.548143 8.0778629,12.708907 8.0036671,12.337951 8.0108495,11.603455 8.0924045,11.221843 8.3267909,10.125101 8.973118,9.1961541 9.9114543,8.6073751 10.42315,8.2863011 11.104799,8.0689282 11.720137,8.0305995 c 1.221985,-0.076116 2.323178,0.3528824 3.163733,1.2325147 0.532928,0.557704 0.880409,1.2365438 1.038071,2.0279788 0.06766,0.339646 0.06766,1.078168 0,1.417814 -0.156025,0.783218 -0.503426,1.466528 -1.023382,2.012914 -0.488092,0.512901 -1.001911,0.839656 -1.666824,1.059989 -0.495889,0.164324 -0.963169,0.222053 -1.518424,0.187593 z"
     id="path3" />
  <path
     style="fill:#e67e80;fill-opacity:1;stroke-width:0.0273038"
     d="M 4.668942,20.939988 C 3.9676185,20.820743 3.3597895,20.276173 3.1107486,19.543963 l -0.06638,-0.195166 V 11.980537 4.6122758 L 3.1385396,4.368436 C 3.2637987,4.044099 3.3911149,3.8507408 3.6418177,3.6040956 3.9245217,3.3259671 4.2813057,3.1279132 4.5875755,3.0790971 4.7599228,3.0516269 6.3262378,3.0443686 12.081911,3.0443686 h 7.276451 l 0.21843,0.074387 c 0.320164,0.1090324 0.544213,0.2514938 0.806235,0.512644 0.251436,0.2505989 0.384962,0.4681123 0.506224,0.8246381 l 0.06638,0.1951655 V 12 19.348797 l -0.06638,0.195166 c -0.233113,0.68538 -0.66704,1.121826 -1.339763,1.347541 l -0.191126,0.06413 -7.276451,0.0038 c -4.0020475,0.0021 -7.3378837,-0.0067 -7.412969,-0.01943 z M 19.017065,12 V 4.996587 H 12 4.9829352 V 12 19.003413 H 12 19.017065 Z"
     id="path4" />
  <path
     style="fill:#e67e80;fill-opacity:1;stroke-width:0.0273038"
     d="m 3.0305154,12 c 2e-7,-3.9945392 0.00316,-5.6246074 0.00703,-3.6223738 0.00386,2.0022338 0.00386,5.2704928 -4e-7,7.2627988 C 3.033677,17.63273 3.0305152,15.994539 3.0305154,12 Z"
     id="path5" />
  <path
     style="fill:#dbbc7f;stroke-width:0.0273038;fill-opacity:1"
     d="M 4.6552901,20.923191 C 4.5321389,20.902442 4.3167128,20.826526 4.1638225,20.749999 3.6799625,20.50781 3.3235453,20.084742 3.1140154,19.503877 l -0.069647,-0.193078 -8.2e-5,-7.327754 -8.19e-5,-7.3277549 0.096842,-0.2501783 C 3.1943096,4.2675136 3.2880007,4.07707 3.349249,3.9819036 3.5779019,3.6266272 4.0160892,3.2781584 4.4160962,3.1334923 l 0.1709345,-0.06182 7.3850953,-0.0082 7.385096,-0.0082 0.164392,0.058879 c 0.400103,0.1433026 0.727546,0.365224 0.971616,0.6585043 0.178118,0.2140301 0.251969,0.3455403 0.365982,0.6517226 l 0.09615,0.2582217 V 12 19.317406 l -0.09619,0.258305 c -0.230061,0.617828 -0.610673,1.016949 -1.205288,1.263899 l -0.21362,0.08872 -7.358362,0.0032 c -4.0470987,0.0018 -7.3890782,-0.002 -7.4266209,-0.0083 z M 19.017065,12 V 4.996587 H 12 4.9829352 V 12 19.003413 H 12 19.017065 Z"
     id="path6" />
  <path
     style="fill:#a7c080;fill-opacity:1;stroke-width:0.0273038"
     d="M 11.578211,15.944472 C 10.060625,15.771348 8.7517557,14.724097 8.2512959,13.282543 8.0816943,12.794013 8.0544202,12.612826 8.0561785,11.986348 c 0.00144,-0.511866 0.00779,-0.584749 0.074344,-0.852353 0.1962644,-0.789191 0.522601,-1.371914 1.0834834,-1.9347224 0.5915072,-0.5935383 1.2629141,-0.946198 2.1034001,-1.1048212 0.311776,-0.058841 0.977696,-0.066878 1.283277,-0.015488 1.290354,0.2169997 2.371357,1.0114572 2.954555,2.1713806 0.124687,0.24799 0.296424,0.754484 0.352551,1.039758 0.05886,0.299155 0.05071,1.197762 -0.01337,1.474403 -0.129065,0.557211 -0.317245,1.004626 -0.602045,1.43142 -0.708352,1.061519 -1.878548,1.713397 -3.160941,1.760859 -0.184918,0.0068 -0.43387,0.0013 -0.553226,-0.01231 z"
     id="path7" />
  <path
     style="fill:#a7c080;fill-opacity:1;stroke-width:0.0273038"
     d="M 4.4156325,20.835278 C 4.1017997,20.726039 3.9124369,20.6071 3.6726395,20.368601 3.4330797,20.130338 3.267394,19.86855 3.1371862,19.52257 L 3.0443686,19.275941 V 11.975171 4.6744007 L 3.1451792,4.4327635 C 3.200625,4.299863 3.2882079,4.1187929 3.3398078,4.0303855 3.5371662,3.6922466 4.0073202,3.306021 4.402247,3.1576051 l 0.1847837,-0.069443 7.3856653,-0.011916 7.385666,-0.011916 0.239434,0.095484 c 0.596005,0.2376818 0.985942,0.6225162 1.227703,1.2116378 l 0.116481,0.2838376 0.007,7.3116085 0.007,7.311608 -0.08944,0.23788 c -0.143766,0.382362 -0.277668,0.595907 -0.536372,0.855403 -0.206433,0.207064 -0.272113,0.253711 -0.547828,0.389078 l -0.313275,0.153808 -7.413688,-3.66e-4 -7.4136878,-3.65e-4 z M 19.017065,12 V 4.996587 H 12 4.9829352 V 12 19.003413 H 12 19.017065 Z"
     id="path8" />
</svg>
