<?xml version="1.0" encoding="UTF-8" standalone="no"?>
<!-- Created with Inkscape (http://www.inkscape.org/) -->

<svg
   width="20.851097mm"
   height="16.42211mm"
   viewBox="0 0 20.851097 16.42211"
   version="1.1"
   id="svg1"
   inkscape:version="1.3 (0e150ed6c4, 2023-07-21)"
   sodipodi:docname="tile.svg"
   xmlns:inkscape="http://www.inkscape.org/namespaces/inkscape"
   xmlns:sodipodi="http://sodipodi.sourceforge.net/DTD/sodipodi-0.dtd"
   xmlns="http://www.w3.org/2000/svg"
   xmlns:svg="http://www.w3.org/2000/svg">
  <sodipodi:namedview
     id="namedview1"
     pagecolor="#ffffff"
     bordercolor="#000000"
     borderopacity="0.25"
     inkscape:showpageshadow="2"
     inkscape:pageopacity="0.0"
     inkscape:pagecheckerboard="0"
     inkscape:deskcolor="#d1d1d1"
     inkscape:document-units="mm"
     inkscape:lockguides="true"
     inkscape:zoom="6.228844"
     inkscape:cx="202.9269"
     inkscape:cy="518.87638"
     inkscape:window-width="1908"
     inkscape:window-height="1020"
     inkscape:window-x="6"
     inkscape:window-y="30"
     inkscape:window-maximized="0"
     inkscape:current-layer="layer1" />
  <defs
     id="defs1" />
  <g
     inkscape:label="Layer 1"
     inkscape:groupmode="layer"
     id="layer1"
     transform="translate(-45.529164,-125.01967)">
    <g
       id="g3"
       inkscape:export-filename="../tile.svg"
       inkscape:export-xdpi="31.56925"
       inkscape:export-ydpi="31.56925">
      <path
         id="rect1"
         style="fill:#e5c07b;stroke-width:0.215309"
         d="m 56.570707,128.62936 v 5.1e-4 c -3.65e-4,8e-5 -8.99e-4,4.5e-4 -10e-4,5.2e-4 0.0092,0.003 0.01241,0.003 0.0186,0.004 -0.0059,-0.002 -0.01171,-0.003 -0.01757,-0.005 z m -6.253882,12.80542 c -0.03139,-8.6e-4 -0.05319,0.001 -0.03256,0.003 0.02513,0.001 0.0503,0.002 0.07545,0.004 -0.01578,-0.002 -0.0281,-0.006 -0.04289,-0.006 z" />
    </g>
    <path
       style="fill:#abb2bf;fill-opacity:1;stroke-width:0.0294117"
       d="m 45.529167,131.93145 v -6.91177 h 5 5 v 6.91177 6.91176 h -5 -5 z"
       id="path3" />
    <path
       style="fill:#abb2bf;fill-opacity:1;stroke-width:0.0305927"
       d="m 57,128.05 v -3 h 4.69013 4.690131 v 3 3 H 61.69013 57 Z"
       id="path4" />
    <path
       style="fill:#abb2bf;fill-opacity:1;stroke-width:0.0305923"
       d="m 57,135.85 v -3 H 61.690001 66.38 v 3 3 H 61.690001 57 Z"
       id="path5" />
  </g>
</svg>
